<mxfile host="app.diagrams.net" modified="2023-04-23T08:24:28.923Z" agent="Mozilla/5.0 (Windows NT 10.0; Win64; x64) AppleWebKit/537.36 (KHTML, like Gecko) Chrome/111.0.0.0 Safari/537.36 OPR/97.0.0.0" etag="Xfovc5-GyU9Q4z-tioR-" version="21.1.1" type="github">
  <diagram id="prtHgNgQTEPvFCAcTncT" name="Page-1">
    <mxGraphModel dx="1211" dy="666" grid="1" gridSize="10" guides="1" tooltips="1" connect="1" arrows="1" fold="1" page="1" pageScale="1" pageWidth="827" pageHeight="1169" math="0" shadow="0">
      <root>
        <mxCell id="0" />
        <mxCell id="1" parent="0" />
        <mxCell id="sOftQT2Vc1P5vOLi5NKV-1" value="Wyszukiwanie produktów" style="ellipse;whiteSpace=wrap;html=1;strokeWidth=2;" vertex="1" parent="1">
          <mxGeometry x="240" y="780" width="120" height="60" as="geometry" />
        </mxCell>
        <mxCell id="sOftQT2Vc1P5vOLi5NKV-2" value="Klienci" style="rounded=0;whiteSpace=wrap;html=1;strokeWidth=2;" vertex="1" parent="1">
          <mxGeometry x="30" y="980" width="120" height="40" as="geometry" />
        </mxCell>
        <mxCell id="sOftQT2Vc1P5vOLi5NKV-10" value="Pracownik magazynu" style="rounded=0;whiteSpace=wrap;html=1;strokeWidth=2;" vertex="1" parent="1">
          <mxGeometry x="190" y="20" width="120" height="40" as="geometry" />
        </mxCell>
        <mxCell id="sOftQT2Vc1P5vOLi5NKV-11" value="Pracownik działu zakupów" style="rounded=0;whiteSpace=wrap;html=1;strokeWidth=2;" vertex="1" parent="1">
          <mxGeometry x="353.5" y="20" width="120" height="40" as="geometry" />
        </mxCell>
        <mxCell id="sOftQT2Vc1P5vOLi5NKV-13" value="Płatność" style="ellipse;whiteSpace=wrap;html=1;strokeWidth=2;" vertex="1" parent="1">
          <mxGeometry x="570" y="910" width="120" height="60" as="geometry" />
        </mxCell>
        <mxCell id="sOftQT2Vc1P5vOLi5NKV-14" value="Zarządzanie kontem" style="ellipse;whiteSpace=wrap;html=1;strokeWidth=2;" vertex="1" parent="1">
          <mxGeometry x="50" y="1280" width="120" height="60" as="geometry" />
        </mxCell>
        <mxCell id="sOftQT2Vc1P5vOLi5NKV-15" value="Zarządzanie stanem magazynu" style="ellipse;whiteSpace=wrap;html=1;strokeWidth=2;" vertex="1" parent="1">
          <mxGeometry x="190" y="80" width="120" height="60" as="geometry" />
        </mxCell>
        <mxCell id="sOftQT2Vc1P5vOLi5NKV-16" value="Planowanie dostaw" style="ellipse;whiteSpace=wrap;html=1;strokeWidth=2;" vertex="1" parent="1">
          <mxGeometry x="190" y="150" width="120" height="60" as="geometry" />
        </mxCell>
        <mxCell id="sOftQT2Vc1P5vOLi5NKV-17" value="Przesunięcia magazynowe" style="ellipse;whiteSpace=wrap;html=1;strokeWidth=2;" vertex="1" parent="1">
          <mxGeometry x="190" y="220" width="120" height="60" as="geometry" />
        </mxCell>
        <mxCell id="sOftQT2Vc1P5vOLi5NKV-18" value="Przyjęcia i wydania" style="ellipse;whiteSpace=wrap;html=1;strokeWidth=2;" vertex="1" parent="1">
          <mxGeometry x="190" y="290" width="120" height="60" as="geometry" />
        </mxCell>
        <mxCell id="sOftQT2Vc1P5vOLi5NKV-19" value="Prognoza zapotrzebowania" style="ellipse;whiteSpace=wrap;html=1;strokeWidth=2;" vertex="1" parent="1">
          <mxGeometry x="190" y="360" width="120" height="60" as="geometry" />
        </mxCell>
        <mxCell id="sOftQT2Vc1P5vOLi5NKV-20" value="Bank / Pośrednik płatności" style="rounded=0;whiteSpace=wrap;html=1;strokeWidth=2;" vertex="1" parent="1">
          <mxGeometry x="690" y="1000" width="120" height="40" as="geometry" />
        </mxCell>
        <mxCell id="sOftQT2Vc1P5vOLi5NKV-21" value="Portal zawierający dane klienta" style="rounded=0;whiteSpace=wrap;html=1;strokeWidth=2;" vertex="1" parent="1">
          <mxGeometry x="650" y="20" width="120" height="40" as="geometry" />
        </mxCell>
        <mxCell id="sOftQT2Vc1P5vOLi5NKV-22" value="Dostawca" style="rounded=0;whiteSpace=wrap;html=1;strokeWidth=2;" vertex="1" parent="1">
          <mxGeometry x="650" y="80" width="120" height="40" as="geometry" />
        </mxCell>
        <mxCell id="sOftQT2Vc1P5vOLi5NKV-23" value="Zarządzanie zamówieniami&lt;br&gt;(CRUD)" style="ellipse;whiteSpace=wrap;html=1;strokeWidth=2;" vertex="1" parent="1">
          <mxGeometry x="234" y="910" width="120" height="60" as="geometry" />
        </mxCell>
        <mxCell id="sOftQT2Vc1P5vOLi5NKV-25" value="Wyszukiwanie produktów" style="ellipse;whiteSpace=wrap;html=1;strokeWidth=2;" vertex="1" parent="1">
          <mxGeometry x="354" y="80" width="120" height="60" as="geometry" />
        </mxCell>
        <mxCell id="sOftQT2Vc1P5vOLi5NKV-26" value="Płatność" style="ellipse;whiteSpace=wrap;html=1;strokeWidth=2;" vertex="1" parent="1">
          <mxGeometry x="354" y="220" width="120" height="60" as="geometry" />
        </mxCell>
        <mxCell id="sOftQT2Vc1P5vOLi5NKV-27" value="Zarządzanie zamówieniami" style="ellipse;whiteSpace=wrap;html=1;strokeWidth=2;" vertex="1" parent="1">
          <mxGeometry x="354" y="150" width="120" height="60" as="geometry" />
        </mxCell>
        <mxCell id="sOftQT2Vc1P5vOLi5NKV-28" value="Zarządzanie dostawcami" style="ellipse;whiteSpace=wrap;html=1;strokeWidth=2;" vertex="1" parent="1">
          <mxGeometry x="354" y="290" width="120" height="60" as="geometry" />
        </mxCell>
        <mxCell id="sOftQT2Vc1P5vOLi5NKV-29" value="Zarządzanie dostawcami" style="ellipse;whiteSpace=wrap;html=1;strokeWidth=2;" vertex="1" parent="1">
          <mxGeometry x="354" y="370" width="120" height="60" as="geometry" />
        </mxCell>
        <mxCell id="sOftQT2Vc1P5vOLi5NKV-30" value="Negocjowanie oferty&lt;br&gt;zakupów i dostawy" style="ellipse;whiteSpace=wrap;html=1;strokeWidth=2;" vertex="1" parent="1">
          <mxGeometry x="354" y="450" width="120" height="60" as="geometry" />
        </mxCell>
        <mxCell id="sOftQT2Vc1P5vOLi5NKV-31" value="Generowanie raportów" style="ellipse;whiteSpace=wrap;html=1;strokeWidth=2;" vertex="1" parent="1">
          <mxGeometry x="354" y="530" width="120" height="60" as="geometry" />
        </mxCell>
        <mxCell id="sOftQT2Vc1P5vOLi5NKV-43" value="" style="shape=link;html=1;rounded=0;width=29.16666666666667;strokeWidth=2;" edge="1" parent="1">
          <mxGeometry width="100" relative="1" as="geometry">
            <mxPoint x="445" y="940" as="sourcePoint" />
            <mxPoint x="545" y="940" as="targetPoint" />
          </mxGeometry>
        </mxCell>
        <mxCell id="sOftQT2Vc1P5vOLi5NKV-44" value="Zamówienia" style="text;html=1;align=center;verticalAlign=middle;resizable=0;points=[];autosize=1;strokeColor=none;fillColor=none;" vertex="1" parent="1">
          <mxGeometry x="450" y="925" width="90" height="30" as="geometry" />
        </mxCell>
        <mxCell id="sOftQT2Vc1P5vOLi5NKV-45" value="" style="shape=link;html=1;rounded=0;width=29.16666666666667;strokeWidth=2;" edge="1" parent="1">
          <mxGeometry width="100" relative="1" as="geometry">
            <mxPoint x="660" y="345" as="sourcePoint" />
            <mxPoint x="760" y="345" as="targetPoint" />
          </mxGeometry>
        </mxCell>
        <mxCell id="sOftQT2Vc1P5vOLi5NKV-46" value="Produkty" style="text;html=1;align=center;verticalAlign=middle;resizable=0;points=[];autosize=1;strokeColor=none;fillColor=none;" vertex="1" parent="1">
          <mxGeometry x="675" y="330" width="70" height="30" as="geometry" />
        </mxCell>
        <mxCell id="sOftQT2Vc1P5vOLi5NKV-47" value="" style="shape=link;html=1;rounded=0;width=29.16666666666667;strokeWidth=2;" edge="1" parent="1">
          <mxGeometry width="100" relative="1" as="geometry">
            <mxPoint x="490" y="1105" as="sourcePoint" />
            <mxPoint x="590" y="1105" as="targetPoint" />
          </mxGeometry>
        </mxCell>
        <mxCell id="sOftQT2Vc1P5vOLi5NKV-48" value="Dane klientów" style="text;html=1;align=center;verticalAlign=middle;resizable=0;points=[];autosize=1;strokeColor=none;fillColor=none;" vertex="1" parent="1">
          <mxGeometry x="490" y="1090" width="100" height="30" as="geometry" />
        </mxCell>
        <mxCell id="sOftQT2Vc1P5vOLi5NKV-49" value="" style="endArrow=classic;html=1;rounded=0;strokeWidth=2;" edge="1" parent="1">
          <mxGeometry relative="1" as="geometry">
            <mxPoint x="640" y="200" as="sourcePoint" />
            <mxPoint x="760" y="200" as="targetPoint" />
            <Array as="points">
              <mxPoint x="680" y="200" />
            </Array>
          </mxGeometry>
        </mxCell>
        <mxCell id="sOftQT2Vc1P5vOLi5NKV-50" value="Label" style="edgeLabel;resizable=0;html=1;align=center;verticalAlign=middle;fontSize=12;" connectable="0" vertex="1" parent="sOftQT2Vc1P5vOLi5NKV-49">
          <mxGeometry relative="1" as="geometry" />
        </mxCell>
        <mxCell id="sOftQT2Vc1P5vOLi5NKV-51" value="" style="shape=link;html=1;rounded=0;width=29.16666666666667;strokeWidth=2;" edge="1" parent="1">
          <mxGeometry width="100" relative="1" as="geometry">
            <mxPoint x="540" y="810" as="sourcePoint" />
            <mxPoint x="640" y="810" as="targetPoint" />
          </mxGeometry>
        </mxCell>
        <mxCell id="sOftQT2Vc1P5vOLi5NKV-52" value="Produkty" style="text;html=1;align=center;verticalAlign=middle;resizable=0;points=[];autosize=1;strokeColor=none;fillColor=none;" vertex="1" parent="1">
          <mxGeometry x="555" y="795" width="70" height="30" as="geometry" />
        </mxCell>
        <mxCell id="sOftQT2Vc1P5vOLi5NKV-53" value="" style="endArrow=classic;html=1;rounded=0;strokeWidth=2;exitX=0.5;exitY=0;exitDx=0;exitDy=0;entryX=0;entryY=0.5;entryDx=0;entryDy=0;" edge="1" parent="1" source="sOftQT2Vc1P5vOLi5NKV-2" target="sOftQT2Vc1P5vOLi5NKV-1">
          <mxGeometry relative="1" as="geometry">
            <mxPoint x="60" y="870" as="sourcePoint" />
            <mxPoint x="180" y="870" as="targetPoint" />
            <Array as="points">
              <mxPoint x="120" y="850" />
            </Array>
          </mxGeometry>
        </mxCell>
        <mxCell id="sOftQT2Vc1P5vOLi5NKV-54" value="Parametry wyszukiwania" style="edgeLabel;resizable=0;html=1;align=center;verticalAlign=middle;fontSize=12;" connectable="0" vertex="1" parent="sOftQT2Vc1P5vOLi5NKV-53">
          <mxGeometry relative="1" as="geometry" />
        </mxCell>
        <mxCell id="sOftQT2Vc1P5vOLi5NKV-55" value="" style="endArrow=classic;html=1;rounded=0;strokeWidth=2;exitX=0.5;exitY=0;exitDx=0;exitDy=0;entryX=0.422;entryY=-0.033;entryDx=0;entryDy=0;entryPerimeter=0;" edge="1" parent="1" source="sOftQT2Vc1P5vOLi5NKV-1" target="sOftQT2Vc1P5vOLi5NKV-52">
          <mxGeometry relative="1" as="geometry">
            <mxPoint x="400" y="809.47" as="sourcePoint" />
            <mxPoint x="540" y="810" as="targetPoint" />
            <Array as="points">
              <mxPoint x="390" y="740" />
              <mxPoint x="480" y="740" />
              <mxPoint x="530" y="740" />
            </Array>
          </mxGeometry>
        </mxCell>
        <mxCell id="sOftQT2Vc1P5vOLi5NKV-56" value="Zapytanie do bazy" style="edgeLabel;resizable=0;html=1;align=center;verticalAlign=middle;fontSize=12;" connectable="0" vertex="1" parent="sOftQT2Vc1P5vOLi5NKV-55">
          <mxGeometry relative="1" as="geometry" />
        </mxCell>
        <mxCell id="sOftQT2Vc1P5vOLi5NKV-59" value="" style="endArrow=classic;html=1;rounded=0;strokeWidth=2;entryX=1;entryY=0.5;entryDx=0;entryDy=0;" edge="1" parent="1" target="sOftQT2Vc1P5vOLi5NKV-1">
          <mxGeometry relative="1" as="geometry">
            <mxPoint x="540" y="810" as="sourcePoint" />
            <mxPoint x="500" y="850" as="targetPoint" />
            <Array as="points" />
          </mxGeometry>
        </mxCell>
        <mxCell id="sOftQT2Vc1P5vOLi5NKV-60" value="Odpowiedź z bazy" style="edgeLabel;resizable=0;html=1;align=center;verticalAlign=middle;fontSize=12;" connectable="0" vertex="1" parent="sOftQT2Vc1P5vOLi5NKV-59">
          <mxGeometry relative="1" as="geometry" />
        </mxCell>
        <mxCell id="sOftQT2Vc1P5vOLi5NKV-61" value="" style="endArrow=classic;html=1;rounded=0;strokeWidth=2;entryX=0.75;entryY=0;entryDx=0;entryDy=0;exitX=0;exitY=1;exitDx=0;exitDy=0;" edge="1" parent="1" source="sOftQT2Vc1P5vOLi5NKV-1" target="sOftQT2Vc1P5vOLi5NKV-2">
          <mxGeometry relative="1" as="geometry">
            <mxPoint x="290" y="890" as="sourcePoint" />
            <mxPoint x="110" y="890" as="targetPoint" />
            <Array as="points">
              <mxPoint x="180" y="880" />
            </Array>
          </mxGeometry>
        </mxCell>
        <mxCell id="sOftQT2Vc1P5vOLi5NKV-62" value="Wyszukane produkty" style="edgeLabel;resizable=0;html=1;align=center;verticalAlign=middle;fontSize=12;" connectable="0" vertex="1" parent="sOftQT2Vc1P5vOLi5NKV-61">
          <mxGeometry relative="1" as="geometry" />
        </mxCell>
        <mxCell id="sOftQT2Vc1P5vOLi5NKV-64" value="" style="endArrow=classic;html=1;rounded=0;strokeWidth=2;exitX=1;exitY=0.5;exitDx=0;exitDy=0;entryX=0;entryY=0.5;entryDx=0;entryDy=0;" edge="1" parent="1" source="sOftQT2Vc1P5vOLi5NKV-2" target="sOftQT2Vc1P5vOLi5NKV-23">
          <mxGeometry relative="1" as="geometry">
            <mxPoint x="60" y="1220" as="sourcePoint" />
            <mxPoint x="210" y="1050" as="targetPoint" />
            <Array as="points">
              <mxPoint x="190" y="950" />
            </Array>
          </mxGeometry>
        </mxCell>
        <mxCell id="sOftQT2Vc1P5vOLi5NKV-65" value="polecenie" style="edgeLabel;resizable=0;html=1;align=center;verticalAlign=middle;fontSize=12;" connectable="0" vertex="1" parent="sOftQT2Vc1P5vOLi5NKV-64">
          <mxGeometry relative="1" as="geometry">
            <mxPoint x="4" as="offset" />
          </mxGeometry>
        </mxCell>
        <mxCell id="sOftQT2Vc1P5vOLi5NKV-67" value="" style="endArrow=classic;html=1;rounded=0;strokeWidth=2;exitX=1;exitY=0;exitDx=0;exitDy=0;entryX=0.544;entryY=-0.086;entryDx=0;entryDy=0;entryPerimeter=0;" edge="1" parent="1" source="sOftQT2Vc1P5vOLi5NKV-23" target="sOftQT2Vc1P5vOLi5NKV-44">
          <mxGeometry relative="1" as="geometry">
            <mxPoint x="384" y="925" as="sourcePoint" />
            <mxPoint x="474" y="865" as="targetPoint" />
            <Array as="points">
              <mxPoint x="360" y="880" />
              <mxPoint x="470" y="880" />
            </Array>
          </mxGeometry>
        </mxCell>
        <mxCell id="sOftQT2Vc1P5vOLi5NKV-68" value="dane&amp;nbsp; nt. zamówienia" style="edgeLabel;resizable=0;html=1;align=center;verticalAlign=middle;fontSize=12;" connectable="0" vertex="1" parent="sOftQT2Vc1P5vOLi5NKV-67">
          <mxGeometry relative="1" as="geometry" />
        </mxCell>
        <mxCell id="sOftQT2Vc1P5vOLi5NKV-69" value="" style="endArrow=classic;html=1;rounded=0;strokeWidth=2;entryX=1;entryY=1;entryDx=0;entryDy=0;exitX=0.556;exitY=1.107;exitDx=0;exitDy=0;exitPerimeter=0;" edge="1" parent="1" source="sOftQT2Vc1P5vOLi5NKV-44" target="sOftQT2Vc1P5vOLi5NKV-23">
          <mxGeometry relative="1" as="geometry">
            <mxPoint x="570" y="980" as="sourcePoint" />
            <mxPoint x="390" y="980" as="targetPoint" />
            <Array as="points">
              <mxPoint x="480" y="1000" />
              <mxPoint x="360" y="1000" />
            </Array>
          </mxGeometry>
        </mxCell>
        <mxCell id="sOftQT2Vc1P5vOLi5NKV-70" value="Informacja zwrotna" style="edgeLabel;resizable=0;html=1;align=center;verticalAlign=middle;fontSize=12;" connectable="0" vertex="1" parent="sOftQT2Vc1P5vOLi5NKV-69">
          <mxGeometry relative="1" as="geometry">
            <mxPoint as="offset" />
          </mxGeometry>
        </mxCell>
        <mxCell id="sOftQT2Vc1P5vOLi5NKV-72" value="" style="endArrow=classic;html=1;rounded=0;strokeWidth=2;entryX=1;entryY=0.75;entryDx=0;entryDy=0;exitX=0.5;exitY=1;exitDx=0;exitDy=0;" edge="1" parent="1" source="sOftQT2Vc1P5vOLi5NKV-23" target="sOftQT2Vc1P5vOLi5NKV-2">
          <mxGeometry relative="1" as="geometry">
            <mxPoint x="353.5" y="1001" as="sourcePoint" />
            <mxPoint x="173.5" y="1020" as="targetPoint" />
            <Array as="points">
              <mxPoint x="270" y="1001" />
              <mxPoint x="230" y="1020" />
              <mxPoint x="190" y="1020" />
            </Array>
          </mxGeometry>
        </mxCell>
        <mxCell id="sOftQT2Vc1P5vOLi5NKV-73" value="potwierdzenie&lt;br&gt;&amp;nbsp;wykonania polecenia" style="edgeLabel;resizable=0;html=1;align=center;verticalAlign=middle;fontSize=12;" connectable="0" vertex="1" parent="sOftQT2Vc1P5vOLi5NKV-72">
          <mxGeometry relative="1" as="geometry">
            <mxPoint x="39" y="-20" as="offset" />
          </mxGeometry>
        </mxCell>
        <mxCell id="sOftQT2Vc1P5vOLi5NKV-75" value="" style="endArrow=classic;html=1;rounded=0;strokeWidth=2;exitX=0.5;exitY=0;exitDx=0;exitDy=0;entryX=0.5;entryY=0;entryDx=0;entryDy=0;" edge="1" parent="1" source="sOftQT2Vc1P5vOLi5NKV-23" target="sOftQT2Vc1P5vOLi5NKV-13">
          <mxGeometry relative="1" as="geometry">
            <mxPoint x="300" y="896" as="sourcePoint" />
            <mxPoint x="585" y="910" as="targetPoint" />
            <Array as="points">
              <mxPoint x="350" y="856" />
              <mxPoint x="480" y="856" />
              <mxPoint x="600" y="856" />
            </Array>
          </mxGeometry>
        </mxCell>
        <mxCell id="sOftQT2Vc1P5vOLi5NKV-76" value="dane do płatności" style="edgeLabel;resizable=0;html=1;align=center;verticalAlign=middle;fontSize=12;" connectable="0" vertex="1" parent="sOftQT2Vc1P5vOLi5NKV-75">
          <mxGeometry relative="1" as="geometry" />
        </mxCell>
        <mxCell id="sOftQT2Vc1P5vOLi5NKV-80" value="" style="endArrow=classic;html=1;rounded=0;strokeWidth=2;exitX=0.5;exitY=1;exitDx=0;exitDy=0;entryX=0.5;entryY=1;entryDx=0;entryDy=0;" edge="1" parent="1" source="sOftQT2Vc1P5vOLi5NKV-2" target="sOftQT2Vc1P5vOLi5NKV-13">
          <mxGeometry relative="1" as="geometry">
            <mxPoint x="150" y="1300" as="sourcePoint" />
            <mxPoint x="230" y="1060" as="targetPoint" />
            <Array as="points">
              <mxPoint x="130" y="1040" />
              <mxPoint x="520" y="1040" />
            </Array>
          </mxGeometry>
        </mxCell>
        <mxCell id="sOftQT2Vc1P5vOLi5NKV-81" value="dane do płatności" style="edgeLabel;resizable=0;html=1;align=center;verticalAlign=middle;fontSize=12;" connectable="0" vertex="1" parent="sOftQT2Vc1P5vOLi5NKV-80">
          <mxGeometry relative="1" as="geometry">
            <mxPoint x="10" as="offset" />
          </mxGeometry>
        </mxCell>
        <mxCell id="sOftQT2Vc1P5vOLi5NKV-82" value="" style="endArrow=classic;html=1;rounded=0;strokeWidth=2;exitX=1;exitY=0;exitDx=0;exitDy=0;entryX=0.75;entryY=0;entryDx=0;entryDy=0;" edge="1" parent="1" source="sOftQT2Vc1P5vOLi5NKV-13" target="sOftQT2Vc1P5vOLi5NKV-20">
          <mxGeometry relative="1" as="geometry">
            <mxPoint x="708" y="900" as="sourcePoint" />
            <mxPoint x="792" y="840" as="targetPoint" />
            <Array as="points">
              <mxPoint x="730" y="920" />
            </Array>
          </mxGeometry>
        </mxCell>
        <mxCell id="sOftQT2Vc1P5vOLi5NKV-83" value="polecenie" style="edgeLabel;resizable=0;html=1;align=center;verticalAlign=middle;fontSize=12;" connectable="0" vertex="1" parent="sOftQT2Vc1P5vOLi5NKV-82">
          <mxGeometry relative="1" as="geometry">
            <mxPoint x="4" as="offset" />
          </mxGeometry>
        </mxCell>
      </root>
    </mxGraphModel>
  </diagram>
</mxfile>
